<svg width="20" height="18" viewBox="0 0 20 18" fill="none" xmlns="http://www.w3.org/2000/svg">
<path d="M18.37 8.05873L10.67 15.7587C9.46244 16.9906 7.84973 17.7437 6.12999 17.8787H5.68999C4.94917 17.8872 4.21404 17.7484 3.52735 17.4703C2.84066 17.1922 2.2161 16.7803 1.68999 16.2587C-0.650013 13.9187 -0.420013 9.87873 2.19999 7.25873L9.09999 0.358725C9.28735 0.172474 9.5408 0.0679321 9.80499 0.0679321C10.0692 0.0679321 10.3226 0.172474 10.51 0.358725C10.6037 0.451688 10.6781 0.562289 10.7289 0.684148C10.7796 0.806008 10.8058 0.936713 10.8058 1.06873C10.8058 1.20074 10.7796 1.33144 10.7289 1.4533C10.6781 1.57516 10.6037 1.68576 10.51 1.77873L3.59999 8.68872C1.74999 10.5287 1.51999 13.2987 3.07999 14.8587C3.46526 15.2239 3.92441 15.5021 4.42643 15.6746C4.92844 15.8472 5.46163 15.9099 5.98999 15.8587C7.22695 15.7559 8.38491 15.2088 9.24999 14.3187L17 6.64872C17.5579 6.17476 17.908 5.50112 17.9753 4.77214C18.0426 4.04316 17.8217 3.31682 17.36 2.74872C16.7935 2.28757 16.0688 2.06696 15.3415 2.13427C14.6141 2.20158 13.9422 2.55145 13.47 3.10873L5.76999 10.8087C5.51824 11.0531 5.36217 11.3794 5.32999 11.7287C5.31612 11.8551 5.32947 11.9829 5.36915 12.1036C5.40882 12.2244 5.47389 12.3352 5.55999 12.4287C5.80546 12.6059 6.1088 12.6837 6.40923 12.6466C6.70966 12.6095 6.98497 12.4602 7.17999 12.2287L15.29 4.11872C15.4774 3.93247 15.7308 3.82793 15.995 3.82793C16.2592 3.82793 16.5126 3.93247 16.7 4.11872C16.7937 4.21169 16.8681 4.32229 16.9189 4.44415C16.9696 4.56601 16.9958 4.69671 16.9958 4.82872C16.9958 4.96074 16.9696 5.09144 16.9189 5.2133C16.8681 5.33516 16.7937 5.44576 16.7 5.53872L8.59999 13.6387C8.03634 14.2543 7.25203 14.6219 6.41829 14.6613C5.58455 14.7006 4.7691 14.4085 4.14999 13.8487C3.58895 13.2309 3.29509 12.4162 3.33256 11.5825C3.37003 10.7488 3.73578 9.96374 4.34999 9.39872L12 1.69872C12.8481 0.76428 14.0308 0.202297 15.291 0.134888C16.5511 0.0674797 17.787 0.500093 18.73 1.33873C19.568 2.28007 20.0004 3.51429 19.9329 4.77281C19.8655 6.03134 19.3038 7.2123 18.37 8.05873Z" fill="#231F20"/>
</svg>
